<?xml version="1.0" standalone="no"?>
<!DOCTYPE svg PUBLIC "-//W3C//DTD SVG 20010904//EN"
 "http://www.w3.org/TR/2001/REC-SVG-20010904/DTD/svg10.dtd">
<svg version="1.0" xmlns="http://www.w3.org/2000/svg"
 width="260.000000pt" height="260.000000pt" viewBox="0 0 260.000000 260.000000"
 preserveAspectRatio="xMidYMid meet">
<metadata>
Created by potrace 1.11, written by Peter Selinger 2001-2013
</metadata>
<g transform="translate(0.000000,260.000000) scale(0.100000,-0.100000)"
fill="#000000" stroke="none">
<path d="M1725 2193 c-223 -47 -362 -182 -373 -365 -10 -173 56 -292 205 -366
79 -39 150 -57 337 -86 237 -37 317 -83 329 -191 8 -71 -34 -144 -104 -180
-91 -48 -287 -55 -394 -15 -97 37 -153 81 -197 157 -11 18 -22 33 -25 33 -4 0
-201 -100 -213 -108 -12 -9 68 -137 116 -185 115 -114 257 -160 494 -160 377
1 589 164 590 455 0 158 -74 278 -214 347 -94 46 -207 73 -407 97 -30 4 -64
10 -76 15 -13 5 -23 7 -23 4 0 -2 -21 5 -47 16 -92 39 -125 96 -104 177 22 81
115 132 253 138 136 5 263 -40 333 -117 l33 -37 88 46 c135 68 129 60 89 119
-98 146 -275 222 -514 221 -58 0 -137 -7 -176 -15z"/>
<path d="M598 2153 c-3 -5 -4 -60 -4 -123 l1 -115 180 -2 c99 -1 195 -2 213
-2 l32 -1 0 -293 c0 -162 -5 -319 -10 -350 -36 -193 -166 -291 -374 -283 -196
9 -309 115 -321 304 -2 24 -6 46 -9 50 -5 4 -179 6 -243 3 -18 -1 -17 -73 2
-163 36 -171 138 -304 288 -377 109 -54 203 -72 342 -66 181 6 306 56 415 165
58 58 123 158 135 207 3 10 12 43 21 73 14 47 17 121 18 515 l1 460 -342 3
c-188 1 -343 -1 -345 -5z"/>
</g>
</svg>
