<svg id="icon" xmlns="http://www.w3.org/2000/svg" viewBox="0 0 60 60"><defs><style>.cls-1{fill:#fff;}</style></defs><title>wide high-res icon</title><path class="cls-1" d="M28.18,21.26c1.95,1.16,2,1.43,2.05,2.17a.74.74,0,0,0,.75.74h0a.75.75,0,0,0,.75-.75c0-1.63-.86-2.3-2.78-3.45-4.24-2.52-6.67-4.3-4.8-7.65L26.7,8a.75.75,0,1,0-1.29-.77l-2.56,4.3C20.12,16.45,24.59,19.12,28.18,21.26Z"/><path class="cls-1" d="M43.29,26.83H16.82A11.6,11.6,0,0,0,5.43,38.6c0,4.38,0,14.65,7.69,14.65,4,0,10.82-4.68,13.39-10.25h7.1C36.17,48.57,43,53.25,47,53.25c7.69,0,7.69-10.27,7.69-14.65A11.6,11.6,0,0,0,43.29,26.83ZM47,51.75c-3.59,0-10.05-4.61-12.2-9.79a.75.75,0,0,0-.69-.46H26a.75.75,0,0,0-.7.46c-2.14,5.18-8.61,9.79-12.2,9.79-5.45,0-6.19-6.65-6.19-13.15a10.11,10.11,0,0,1,9.93-10.27H43.29A10.09,10.09,0,0,1,53.18,38.6C53.18,45.1,52.45,51.75,47,51.75Z"/><path class="cls-1" d="M16.46,33.06a4.77,4.77,0,1,0,4.76,4.76A4.77,4.77,0,0,0,16.46,33.06Zm0,8a3.27,3.27,0,1,1,3.26-3.27A3.28,3.28,0,0,1,16.46,41.09Z"/><path class="cls-1" d="M47.42,37.07H44.15V33.81a.75.75,0,0,0-1.5,0v3.26H39.39a.75.75,0,0,0,0,1.5h3.26v3.27a.75.75,0,0,0,1.5,0V38.57h3.27a.75.75,0,0,0,0-1.5Z"/></svg>