<svg id="Capa_1" data-name="Capa 1" xmlns="http://www.w3.org/2000/svg" viewBox="0 0 612.01 612.01"><defs><style>.cls-1{fill:#fff;}</style></defs><title>email-1</title><g id="Shape_17" data-name="Shape 17"><path class="cls-1" d="M612,156.23a50.16,50.16,0,0,0-13.39-33.9c-.14-.17-.17-.39-.32-.57s-.33-.22-.47-.36a51.38,51.38,0,0,0-37.25-16H51.44a51.47,51.47,0,0,0-37.27,16c-.13.14-.33.21-.47.38s-.18.39-.32.57A50.13,50.13,0,0,0,0,156.23V455.78a50.19,50.19,0,0,0,14,34.57c.17.19.22.42.41.6s.14.08.2.14A51.52,51.52,0,0,0,51.44,506.6H560.57a51.49,51.49,0,0,0,36.87-15.52c.06-.05.13-.07.2-.13s.23-.4.4-.58a50.17,50.17,0,0,0,14-34.59V156.23ZM411.69,290.17,588.05,143.94a29.27,29.27,0,0,1,2.76,12.29V455.78a29.27,29.27,0,0,1-2.25,11.2ZM560.57,126.36A30.29,30.29,0,0,1,573,129.08L306,350.46,39,129.08a30.32,30.32,0,0,1,12.45-2.72ZM23.45,467a29.47,29.47,0,0,1-2.25-11.21V156.23A29.27,29.27,0,0,1,24,143.94L200.32,290.18Zm28,18.66a30.1,30.1,0,0,1-13.55-3.31L216.62,303.67l82.58,68.48a10.68,10.68,0,0,0,13.61,0l82.58-68.48L574.12,482.33a30.11,30.11,0,0,1-13.55,3.32H51.44Z"/></g></svg>