<svg id="Layer_1" data-name="Layer 1" xmlns="http://www.w3.org/2000/svg" viewBox="0 0 512 471.72"><defs><style>.cls-1{fill:#fff;}</style></defs><title>email-white-2</title><path class="cls-1" d="M511.64,205.05a23,23,0,0,0-23-23h0L23,182.72a23,23,0,0,0-23,23L.36,468.88a23,23,0,0,0,23,23h0L489,491.22a23,23,0,0,0,23-23Zm-48.3.07L256,349.25,48.29,205.69ZM342.45,372.34l123.65,95.9-420.54.58,124.38-96.48a11.5,11.5,0,1,0-14.1-18.18L23.35,456.92,23,216.21,249.5,372.71a11.53,11.53,0,0,0,13.11,0l226-157.14L489,456.87,356.56,354.16a11.51,11.51,0,0,0-14.11,18.18Z" transform="translate(0 -20.14)"/><path class="cls-1" d="M310.51,62.36,268.66,25a19,19,0,0,0-25.32,0L201.49,62.36a11.51,11.51,0,0,0,15.33,17.16L244.49,54.8v88.67a11.51,11.51,0,1,0,23,0V54.8l27.67,24.72a11.51,11.51,0,0,0,15.33-17.16Z" transform="translate(0 -20.14)"/></svg>