<svg id="Capa_1" data-name="Capa 1" xmlns="http://www.w3.org/2000/svg" viewBox="0 0 512 512"><defs><style>.cls-1{fill:#fff;}</style></defs><title>email-3</title><path class="cls-1" d="M486.4,59.73H25.6A25.6,25.6,0,0,0,0,85.33V426.67a25.6,25.6,0,0,0,25.6,25.6H486.4a25.6,25.6,0,0,0,25.6-25.6V85.33A25.6,25.6,0,0,0,486.4,59.73Zm8.53,366.94a8.53,8.53,0,0,1-8.53,8.53H25.6a8.53,8.53,0,0,1-8.53-8.53V85.33A8.53,8.53,0,0,1,25.6,76.8H486.4a8.53,8.53,0,0,1,8.53,8.53V426.67Z"/><path class="cls-1" d="M470.08,93.9a8.53,8.53,0,0,0-6.23,2L267,261.24a17.05,17.05,0,0,1-22,0L48.15,95.86a8.54,8.54,0,0,0-11,13.08L234,274.3a34.08,34.08,0,0,0,43.92,0L474.82,108.94a8.53,8.53,0,0,0-4.74-15Z"/><path class="cls-1" d="M164.12,273.13a8.55,8.55,0,0,0-8.23,2.65l-119.46,128A8.53,8.53,0,1,0,48.9,415.42l119.47-128a8.54,8.54,0,0,0-4.25-14.29Z"/><path class="cls-1" d="M356.11,275.78a8.54,8.54,0,1,0-12.48,11.64l119.47,128a8.53,8.53,0,0,0,12.47-11.64Z"/></svg>