<svg id="icon" xmlns="http://www.w3.org/2000/svg" viewBox="0 0 60 60"><defs><style>.cls-1{fill:#fff;}</style></defs><title>wide high-res icon</title><path class="cls-1" d="M50.61,14.94,31.83,31.83a3.13,3.13,0,0,1-4.09,0L9,14.94a.73.73,0,0,0-1,.06.75.75,0,0,0,0,1.06L26.73,32.94a4.59,4.59,0,0,0,6.1,0L51.62,16.06A.76.76,0,0,0,51.67,15,.75.75,0,0,0,50.61,14.94Z"/><path class="cls-1" d="M39,33.56a.75.75,0,0,0-1,1.15L50.64,45.18a.7.7,0,0,0,.47.17A.75.75,0,0,0,51.59,44Z"/><path class="cls-1" d="M20.56,33.56,8,44a.75.75,0,0,0,.48,1.32.72.72,0,0,0,.48-.17L21.52,34.71a.75.75,0,0,0,.09-1.05A.74.74,0,0,0,20.56,33.56Z"/><path class="cls-1" d="M51.73,9.15H8.35a6.17,6.17,0,0,0-6.3,6.18V44.77a6.17,6.17,0,0,0,6.3,6.17H51.73a6.18,6.18,0,0,0,6.32-6.17V15.33A6.27,6.27,0,0,0,51.73,9.15Zm4.82,35.62a4.7,4.7,0,0,1-4.82,4.67H8.35a4.68,4.68,0,0,1-4.8-4.67V15.33a4.69,4.69,0,0,1,4.8-4.68H51.73a4.71,4.71,0,0,1,4.82,4.68Z"/></svg>