<svg id="icon" xmlns="http://www.w3.org/2000/svg" viewBox="0 0 60 60"><defs><style>.cls-1{fill:#fff;}</style></defs><title>wide high-res icon</title><path class="cls-1" d="M10.27,43.18a2.17,2.17,0,0,0-2.15-2.09V34.37a.75.75,0,1,0-1.5,0v6.72a2.17,2.17,0,0,0-2.14,2.09L3.82,47a.57.57,0,0,0,0,.13A2.17,2.17,0,0,0,6,49.27h2.8a2.18,2.18,0,0,0,2.17-2.17s0-.09,0-.13Zm-1.5,4.59H6a.67.67,0,0,1-.66-.62L6,43.38s0-.09,0-.13a.67.67,0,0,1,.66-.67H8.1a.67.67,0,0,1,.67.67.57.57,0,0,0,0,.13l.66,3.77A.68.68,0,0,1,8.77,47.77Z"/><path class="cls-1" d="M58.15,29.07l-7.4-16.8a.74.74,0,0,0-.69-.45H11.66a.75.75,0,0,0-.66.39L1.84,29a.73.73,0,0,0,0,.74.74.74,0,0,0,.64.37H17.8l-3,13a1,1,0,0,0,0,.17c0,4.42,8.21,6,15.24,6s15.25-1.58,15.25-6a.5.5,0,0,0,0-.17l-3-13H57.47a.73.73,0,0,0,.62-.34A.75.75,0,0,0,58.15,29.07ZM43.81,43.35c-.11,2.56-5.86,4.42-13.75,4.42s-13.63-1.86-13.74-4.42l3-13.23H40.79ZM3.76,28.62l4.39-8.06H29.23a.75.75,0,0,0,0-1.5H9l3.13-5.74H49.57l6.75,15.3Z"/></svg>