<svg id="Capa_1" data-name="Capa 1" xmlns="http://www.w3.org/2000/svg" viewBox="0 0 430.12 430.12"><defs><style>.cls-1{fill:#fff;}</style></defs><title>linkedin-logo-white</title><path id="LinkedIn" class="cls-1" d="M430.12,261.54v159H337.93V272.19c0-37.27-13.33-62.7-46.7-62.7-25.48,0-40.64,17.14-47.3,33.72-2.44,5.93-3.06,14.18-3.06,22.48V420.56H148.65s1.24-251.29,0-277.32h92.21v39.31c-.19.29-.43.61-.61.89h.61v-.89c12.25-18.87,34.13-45.83,83.1-45.83C384.63,136.72,430.12,176.36,430.12,261.54ZM52.18,9.56C20.64,9.56,0,30.25,0,57.46,0,84.08,20,105.4,51,105.4h.62c32.15,0,52.15-21.31,52.15-47.94C103.13,30.25,83.73,9.56,52.18,9.56Zm-46.7,411H97.66V143.24H5.48Z"/></svg>