<svg id="icon" xmlns="http://www.w3.org/2000/svg" viewBox="0 0 60 60"><defs><style>.cls-1{fill:#fff;}</style></defs><title>tall high-res icon</title><path class="cls-1" d="M49.14,57.06l-5.6-14.3a.76.76,0,0,0-.7-.47H39.55a.75.75,0,0,0,0,1.5h2.78l5,12.8H12.68l5-12.8h2.78a.75.75,0,0,0,0-1.5H17.19a.75.75,0,0,0-.7.47l-5.61,14.3a.76.76,0,0,0,.7,1H48.45a.78.78,0,0,0,.62-.33A.76.76,0,0,0,49.14,57.06Z"/><path class="cls-1" d="M35.65,16.55A5.64,5.64,0,1,0,30,22.18,5.64,5.64,0,0,0,35.65,16.55ZM30,20.68a4.13,4.13,0,1,1,4.14-4.13A4.14,4.14,0,0,1,30,20.68Z"/><path class="cls-1" d="M30,50.17a.75.75,0,0,0,.63-.34C31.27,48.88,45.93,26.5,45.93,18A15.92,15.92,0,0,0,14.1,18c0,8.5,14.66,30.88,15.29,31.83A.75.75,0,0,0,30,50.17ZM30,3.59A14.43,14.43,0,0,1,44.43,18c0,7.1-11.57,25.59-14.42,30C27.17,43.59,15.6,25.1,15.6,18A14.43,14.43,0,0,1,30,3.59Z"/></svg>