<svg id="icon" xmlns="http://www.w3.org/2000/svg" viewBox="0 0 60 60"><defs><style>.cls-1{fill:#fff;}</style></defs><title>square high-res icon</title><path class="cls-1" d="M52,12.23H14.34a2.16,2.16,0,0,0-2.16,2.16V52a2.16,2.16,0,0,0,2.16,2.16H52A2.16,2.16,0,0,0,54.12,52V14.39A2.16,2.16,0,0,0,52,12.23ZM52.62,52a.66.66,0,0,1-.66.66H14.34a.66.66,0,0,1-.66-.66V14.39a.66.66,0,0,1,.66-.66H52a.66.66,0,0,1,.66.66Z"/><path class="cls-1" d="M8.28,46.6a.66.66,0,0,1-.66-.66V8.32a.66.66,0,0,1,.66-.66H45.89a.66.66,0,0,1,.66.66.75.75,0,0,0,1.5,0,2.16,2.16,0,0,0-2.16-2.16H8.28A2.16,2.16,0,0,0,6.12,8.32V45.94A2.16,2.16,0,0,0,8.28,48.1a.75.75,0,1,0,0-1.5Z"/><path class="cls-1" d="M42,38.25V21.12a.75.75,0,0,0-.91-.73L29,23.07a.74.74,0,0,0-.59.73V39.65A4.41,4.41,0,0,0,25,39.42c-2.12.64-3.44,2.53-2.95,4.21a2.79,2.79,0,0,0,1.39,1.64,4.05,4.05,0,0,0,1.91.46,5.4,5.4,0,0,0,1.47-.22c2-.61,3.22-2.23,3-3.81a.58.58,0,0,0,0-.19V29.78l10.63-2.37v8.78A4.43,4.43,0,0,0,37.15,36c-2.12.64-3.44,2.53-2.94,4.21a2.81,2.81,0,0,0,1.39,1.65,4,4,0,0,0,1.91.45A5,5,0,0,0,39,42.06c2-.59,3.2-2.23,3-3.79A0,0,0,0,1,42,38.25ZM26.37,44.07A3,3,0,0,1,24.14,44a1.31,1.31,0,0,1-.66-.75c-.26-.87.63-2,1.94-2.35a3.8,3.8,0,0,1,1-.16,2.59,2.59,0,0,1,1.2.28,1.28,1.28,0,0,1,.66.75C28.57,42.6,27.68,43.67,26.37,44.07Zm3.49-15.83V24.4l10.63-2.35v3.83Zm8.67,12.38a3,3,0,0,1-2.22-.11,1.31,1.31,0,0,1-.66-.75c-.26-.88.63-2,1.94-2.36a3.65,3.65,0,0,1,1-.15,2.6,2.6,0,0,1,1.21.27,1.37,1.37,0,0,1,.66.76C40.74,39.15,39.85,40.23,38.53,40.62Z"/></svg>