<svg id="icon" xmlns="http://www.w3.org/2000/svg" viewBox="0 0 60 60"><defs><style>.cls-1{fill:#fff;}</style></defs><title>square high-res icon</title><path class="cls-1" d="M44.07,25.79a3.09,3.09,0,0,0,2.18,5.27,3.11,3.11,0,0,0,2.19-.9,3.1,3.1,0,0,0,0-4.37A3.16,3.16,0,0,0,44.07,25.79Zm3.31,3.31a1.59,1.59,0,1,1-2.25-2.25,1.59,1.59,0,0,1,2.25,2.25Z"/><path class="cls-1" d="M36.56,24.19H13.42A3.38,3.38,0,0,0,10,27.57V46.38A3.52,3.52,0,0,0,13.42,50H36.56a3.48,3.48,0,0,0,3.29-3.57V27.57A3.3,3.3,0,0,0,36.56,24.19Zm1.79,22.19a2,2,0,0,1-1.79,2.07H13.42a2.06,2.06,0,0,1-1.88-2.07V27.57a1.88,1.88,0,0,1,1.88-1.88H36.56a1.82,1.82,0,0,1,1.79,1.88Z"/><path class="cls-1" d="M49.6,20.15H31.29l6.65-8.55a2.65,2.65,0,0,0,1,.2,2.74,2.74,0,1,0-2.74-2.74,2.64,2.64,0,0,0,.54,1.61l-7,9-7-9a2.71,2.71,0,0,0,.54-1.61,2.75,2.75,0,1,0-2.74,2.74,2.69,2.69,0,0,0,1-.2l6.65,8.55H10.51A4.37,4.37,0,0,0,6,24.37v25A4.78,4.78,0,0,0,10.51,54H49.6A4.66,4.66,0,0,0,54,49.33v-25A4.31,4.31,0,0,0,49.6,20.15ZM39,7.82a1.24,1.24,0,1,1-1.24,1.24A1.25,1.25,0,0,1,39,7.82ZM19.31,9.06a1.25,1.25,0,1,1,1.25,1.24A1.25,1.25,0,0,1,19.31,9.06ZM52.5,49.33a3.21,3.21,0,0,1-2.9,3.17H10.51a3.3,3.3,0,0,1-3-3.17v-25a2.88,2.88,0,0,1,3-2.72H49.6a2.78,2.78,0,0,1,2.9,2.72Z"/></svg>